<svg id="Ebene_1" data-name="Ebene 1" xmlns="http://www.w3.org/2000/svg" viewBox="0 0 170.76 51"><defs><style>.cls-1{fill:#123c8b}</style></defs><title>logo-blue</title><path id="logo-header.svg" class="cls-1" d="M24.57 0h-.06A25.67 25.67 0 0 0 0 24.6a.28.28 0 0 0 0 .06v1.8c.43 5.51 1.94 10 4.61 13.45a.83.83 0 0 0 .86.3 1.93 1.93 0 0 0 1.24-.77 1.52 1.52 0 0 0 .11-1.32 7.71 7.71 0 0 0-.88-1.5 22.42 22.42 0 0 1-2.62-14.67 21.76 21.76 0 0 1 7.16-13.12 21.28 21.28 0 0 1 14.58-5.7 21.8 21.8 0 0 1 15 5.35 22.19 22.19 0 0 1 7.44 12.86 23.53 23.53 0 0 1-3.22 16.41 22.72 22.72 0 0 1-11.37 8.91A25.68 25.68 0 0 1 24 47.81a18 18 0 0 1-7.14-1.55c1.61-2.21 2.86-4.62 2.29-7.78a4.53 4.53 0 0 0-2.23-3.22 4.44 4.44 0 0 0-2.92-.43 24.59 24.59 0 0 1 .12-2.73 37.79 37.79 0 0 1 4.38-10.69 23 23 0 0 1 5-6.31 12.47 12.47 0 0 1 1.25-1c.38 1.63.73 3 1.77 3.94a3.72 3.72 0 0 0 2.47.82 12.86 12.86 0 0 0 3.65-.66l.18-.07a14.24 14.24 0 0 0 4.78-4 5.39 5.39 0 0 0-.06-6.37.86.86 0 0 0-.18-.19 6.07 6.07 0 0 0-4.49-.8 16.35 16.35 0 0 0-4 1.12 26.23 26.23 0 0 0-11.25 8.82c-4.14 5.67-6.2 11.49-7.7 18.73a.85.85 0 0 0 0 .17 8.73 8.73 0 0 1-.24 1.48.81.81 0 0 0 0 .25c-.1 2-1.05 4.77-.17 7.2a3.89 3.89 0 0 0 1.4 1.69 16.16 16.16 0 0 0 1.67 1.1 25.88 25.88 0 0 0 11.79 3.5.82.82 0 0 0 .36.08h1.77a25.69 25.69 0 0 0 24.39-24.47v-1.81A25.82 25.82 0 0 0 26.35 0h-1.78zm39.19 20.94v.44a6.27 6.27 0 0 1 2.07-1.83 5.52 5.52 0 0 1 2.6-.59 5.16 5.16 0 0 1 2.54.62 3.94 3.94 0 0 1 1.67 1.75 4.2 4.2 0 0 1 .46 1.42 14.21 14.21 0 0 1 .11 2v6.7a2.37 2.37 0 0 1-.5 1.64 1.62 1.62 0 0 1-1.28.55 1.66 1.66 0 0 1-1.3-.57 2.37 2.37 0 0 1-.5-1.62v-6a5.87 5.87 0 0 0-.5-2.72 2 2 0 0 0-2-.95 2.9 2.9 0 0 0-1.75.58 3.23 3.23 0 0 0-1.16 1.57 11.18 11.18 0 0 0-.27 3v4.47a2.34 2.34 0 0 1-.48 1.6 1.69 1.69 0 0 1-1.3.54 1.63 1.63 0 0 1-1.28-.54 2.37 2.37 0 0 1-.5-1.62V21a2.25 2.25 0 0 1 .45-1.53 1.54 1.54 0 0 1 1.23-.47 1.66 1.66 0 0 1 .86.22 1.57 1.57 0 0 1 .61.67 2.32 2.32 0 0 1 .22 1.05zm16.62.06v10.4a2.32 2.32 0 0 1-.51 1.6 1.7 1.7 0 0 1-1.3.55 1.64 1.64 0 0 1-1.3-.55 2.4 2.4 0 0 1-.49-1.62V21.1a2.32 2.32 0 0 1 .49-1.61 1.68 1.68 0 0 1 1.29-.49 1.72 1.72 0 0 1 1.3.54 2.09 2.09 0 0 1 .51 1.5zm17 .59V32a11 11 0 0 1-.38 3.13 4.93 4.93 0 0 1-1.22 2.14 5.14 5.14 0 0 1-2.22 1.25 11.91 11.91 0 0 1-3.39.41 9.74 9.74 0 0 1-3.32-.53 5.64 5.64 0 0 1-2.25-1.35 2.43 2.43 0 0 1-.79-1.69 1.42 1.42 0 0 1 .45-1.08 1.55 1.55 0 0 1 1.08-.41 1.78 1.78 0 0 1 1.39.7l.59.71a3.49 3.49 0 0 0 .69.62 2.59 2.59 0 0 0 .91.38 5 5 0 0 0 1.21.13 4.79 4.79 0 0 0 2.16-.4A2.16 2.16 0 0 0 93.32 35a4.25 4.25 0 0 0 .37-1.51c0-.53.06-1.38.08-2.56a5.87 5.87 0 0 1-1.93 1.77 5.18 5.18 0 0 1-2.58.61 5.5 5.5 0 0 1-3.16-.92 5.94 5.94 0 0 1-2.1-2.64 9.54 9.54 0 0 1-.72-3.84 9.25 9.25 0 0 1 .46-2.91A6.26 6.26 0 0 1 85 20.79a5.32 5.32 0 0 1 1.88-1.35 5.86 5.86 0 0 1 2.36-.44 5.6 5.6 0 0 1 2.65.59A6.38 6.38 0 0 1 94 21.41v-.49a2.09 2.09 0 0 1 .46-1.45 1.51 1.51 0 0 1 1.16-.47 1.4 1.4 0 0 1 1.39.69 4.43 4.43 0 0 1 .34 2zm-10.46 4.56a5 5 0 0 0 .95 3.31 3.11 3.11 0 0 0 2.48 1.12 3.21 3.21 0 0 0 1.65-.47 3.55 3.55 0 0 0 1.3-1.45 5.09 5.09 0 0 0 .5-2.36 5.37 5.37 0 0 0-1-3.43 3.07 3.07 0 0 0-2.54-1.23 3 3 0 0 0-2.48 1.17 5.32 5.32 0 0 0-.92 3.34zm17.58-10.36v5.34a7.73 7.73 0 0 1 1.33-1.25 4.76 4.76 0 0 1 1.45-.69A5.91 5.91 0 0 1 109 19a4.93 4.93 0 0 1 2.42.58 4.48 4.48 0 0 1 2.19 3.14 11.18 11.18 0 0 1 .13 1.83v6.9a2.35 2.35 0 0 1-.5 1.64 1.65 1.65 0 0 1-1.3.55q-1.78 0-1.78-2.19v-6.13a5.53 5.53 0 0 0-.51-2.65 2 2 0 0 0-1.95-.94 2.93 2.93 0 0 0-1.74.55 3.27 3.27 0 0 0-1.15 1.49 9.6 9.6 0 0 0-.29 2.86v4.77A2.42 2.42 0 0 1 104 33a1.66 1.66 0 0 1-1.33.55q-1.78 0-1.78-2.19V15.79a2.46 2.46 0 0 1 .46-1.64 1.86 1.86 0 0 1 2.63 0 2.39 2.39 0 0 1 .49 1.64zm13 3.48h.39v-3.52a2.11 2.11 0 0 1 .26-.86 1.57 1.57 0 0 1 .61-.59 1.68 1.68 0 0 1 .88-.24 1.78 1.78 0 0 1 1.24.51 1.49 1.49 0 0 1 .46.84 6.79 6.79 0 0 1 .11 1.4v2.45h1.32a1.65 1.65 0 0 1 1.16.37 1.18 1.18 0 0 1 .41.92 1 1 0 0 1-.58 1 3.67 3.67 0 0 1-1.63.29h-.67v6.62a12.53 12.53 0 0 0 .05 1.31 1.45 1.45 0 0 0 .32.74 1.13 1.13 0 0 0 .85.28 4.73 4.73 0 0 0 .86-.11 4.19 4.19 0 0 1 .84-.12 1.05 1.05 0 0 1 .78.36 1.15 1.15 0 0 1 .36.86 1.45 1.45 0 0 1-.95 1.33 6.4 6.4 0 0 1-2.73.46 4.71 4.71 0 0 1-2.55-.57 2.67 2.67 0 0 1-1.15-1.57 10.8 10.8 0 0 1-.27-2.68v-6.88h-.47a1.72 1.72 0 0 1-1.19-.37 1.22 1.22 0 0 1-.41-.94 1.15 1.15 0 0 1 .42-.92 1.88 1.88 0 0 1 1.25-.37zm9.34 12.13V15.79a2.45 2.45 0 0 1 .47-1.64 1.65 1.65 0 0 1 1.3-.55 1.7 1.7 0 0 1 1.32.55 2.34 2.34 0 0 1 .5 1.64V31.4a2.34 2.34 0 0 1-.51 1.65 1.69 1.69 0 0 1-1.3.54 1.64 1.64 0 0 1-1.32-.59 2.4 2.4 0 0 1-.49-1.62zM137.73 21v10.4a2.32 2.32 0 0 1-.51 1.64 1.7 1.7 0 0 1-1.3.55 1.65 1.65 0 0 1-1.29-.57 2.42 2.42 0 0 1-.49-1.62V21.1a2.34 2.34 0 0 1 .49-1.61 1.68 1.68 0 0 1 1.29-.54 1.72 1.72 0 0 1 1.3.54 2.09 2.09 0 0 1 .51 1.5zm-1.61-3.14a1.93 1.93 0 0 1-1.29-.46 1.64 1.64 0 0 1-.52-1.31 1.6 1.6 0 0 1 .54-1.25 1.84 1.84 0 0 1 1.28-.5 1.88 1.88 0 0 1 1.24.45 1.6 1.6 0 0 1 .54 1.31 1.67 1.67 0 0 1-.53 1.31 1.84 1.84 0 0 1-1.25.46zm8.6 3.09v.44a6.24 6.24 0 0 1 2.07-1.83 5.5 5.5 0 0 1 2.61-.56 5.16 5.16 0 0 1 2.54.62 3.92 3.92 0 0 1 1.67 1.75 4.2 4.2 0 0 1 .46 1.42 14.94 14.94 0 0 1 .1 2v6.7a2.35 2.35 0 0 1-.5 1.64 1.62 1.62 0 0 1-1.28.55 1.66 1.66 0 0 1-1.3-.57 2.37 2.37 0 0 1-.5-1.62v-6a5.87 5.87 0 0 0-.5-2.72 2 2 0 0 0-2-.95 2.9 2.9 0 0 0-1.76.58 3.28 3.28 0 0 0-1.16 1.57 11.22 11.22 0 0 0-.26 3v4.43a2.34 2.34 0 0 1-.52 1.65 1.69 1.69 0 0 1-1.3.54 1.63 1.63 0 0 1-1.28-.57 2.38 2.38 0 0 1-.5-1.62V21a2.25 2.25 0 0 1 .45-1.53A1.55 1.55 0 0 1 143 19a1.66 1.66 0 0 1 .86.22 1.57 1.57 0 0 1 .61.67 2.32 2.32 0 0 1 .24 1.09zm23.07 6.21h-7a4.82 4.82 0 0 0 .49 2.16 3.47 3.47 0 0 0 1.28 1.41 3.4 3.4 0 0 0 1.76.47 4.42 4.42 0 0 0 1.17-.15 4.11 4.11 0 0 0 1-.47 8.73 8.73 0 0 0 .92-.7c.28-.25.64-.58 1.09-1a1.19 1.19 0 0 1 .79-.24 1.31 1.31 0 0 1 .9.3 1.09 1.09 0 0 1 .34.86 2.38 2.38 0 0 1-.38 1.15A4.62 4.62 0 0 1 169 32.2a6.58 6.58 0 0 1-1.94 1 8.3 8.3 0 0 1-2.67.4 7.17 7.17 0 0 1-5.39-2 7.38 7.38 0 0 1-1.93-5.37 8.9 8.9 0 0 1 .47-3 6.53 6.53 0 0 1 1.39-2.35 5.92 5.92 0 0 1 2.24-1.49 7.94 7.94 0 0 1 3-.53 6.92 6.92 0 0 1 3.61.9 5.77 5.77 0 0 1 2.22 2.35 6 6 0 0 1 .75 2.87 1.81 1.81 0 0 1-.78 1.77 4.9 4.9 0 0 1-2.18.4zm-7-2h6.52a4.31 4.31 0 0 0-1-2.76 3 3 0 0 0-2.27-.92 2.89 2.89 0 0 0-2.22.94 4.63 4.63 0 0 0-1 2.74zM79.6 16.43a2.19 2.19 0 0 1-.81-4.08.15.15 0 0 0-.08-.29A3 3 0 1 0 81.66 16a.15.15 0 0 0-.25-.16 2.19 2.19 0 0 1-1.8.59z"/></svg>