<svg xmlns="http://www.w3.org/2000/svg" width="286" height="214" viewBox="0 0 286 214"><defs><style>.cls-1{fill:#123c8b;fill-rule:evenodd;filter:url(#filter)}</style><filter id="filter" x="1184" y="179" width="286" height="214" filterUnits="userSpaceOnUse"><feFlood result="flood" flood-color="#fff"/><feComposite result="composite" operator="in" in2="SourceGraphic"/><feBlend result="blend" in2="SourceGraphic"/></filter></defs><path id="logo-header.svg" class="cls-1" d="M1319.94 179q-.075 0-.15.006c-19.17 1.319-33.75 9.066-44.19 19.521s-18.01 25.039-19.33 44.227a.737.737 0 0 0-.01.148v4.5c0 .056.01.111.01.167 1.11 14.279 5.04 25.969 11.95 34.85a2.161 2.161 0 0 0 2.23.773 5 5 0 0 0 3.21-1.986 3.947 3.947 0 0 0 .28-3.413 19.973 19.973 0 0 0-2.29-3.882 58.093 58.093 0 0 1-6.79-38.037 56.39 56.39 0 0 1 18.55-33.991c9.33-8.237 21.34-14.762 37.78-14.762 16.67 0 28.8 5.178 38.89 13.856a57.5 57.5 0 0 1 19.27 33.333 60.979 60.979 0 0 1-8.34 42.529 58.87 58.87 0 0 1-29.47 23.1c-5.97 2.138-14.75 3.247-23.08 2.943-7.25-.265-14.05-1.72-18.51-4.009 4.18-5.718 7.41-11.982 5.93-20.155a11.737 11.737 0 0 0-5.78-8.352 11.5 11.5 0 0 0-7.63-1.12 63.694 63.694 0 0 1 .31-7.087c2.27-10.179 6.64-19.469 11.42-27.684 3.65-6.276 7.55-11.937 12.83-16.354a32.309 32.309 0 0 1 3.25-2.484c.98 4.236 1.89 7.88 4.58 10.211a9.64 9.64 0 0 0 6.39 2.126 33.333 33.333 0 0 0 9.45-1.7 2.358 2.358 0 0 0 .46-.192c4.34-2.459 9.3-5.85 12.39-10.377a13.959 13.959 0 0 0-.16-16.517 2.215 2.215 0 0 0-.47-.5c-3.29-2.468-7.61-2.6-11.64-2.074a42.373 42.373 0 0 0-10.49 2.9 67.975 67.975 0 0 0-29.15 22.866c-10.73 14.682-16.06 29.766-19.96 48.541a2.193 2.193 0 0 0-.05.442v.017a22.615 22.615 0 0 1-.62 3.823 2.091 2.091 0 0 0-.1.657v.091c-.26 5.2-2.73 12.372-.43 18.668a10.073 10.073 0 0 0 3.62 4.381 41.879 41.879 0 0 0 4.34 2.857 67.058 67.058 0 0 0 30.56 9.081 2.135 2.135 0 0 0 .94.219h4.58a66.574 66.574 0 0 0 63.62-63.649v-4.694a66.92 66.92 0 0 0-63.6-63.806h-4.6zm-127.2 167.386v1.128a16.246 16.246 0 0 1 5.36-4.75 14.3 14.3 0 0 1 6.73-1.538 13.36 13.36 0 0 1 6.59 1.606 10.205 10.205 0 0 1 4.34 4.545 10.872 10.872 0 0 1 1.19 3.691 36.825 36.825 0 0 1 .28 5.058v17.36a6.154 6.154 0 0 1-1.3 4.238 4.2 4.2 0 0 1-3.31 1.435 4.289 4.289 0 0 1-3.38-1.469 6.129 6.129 0 0 1-1.3-4.2v-15.553a15.2 15.2 0 0 0-1.3-7.04q-1.26-2.46-5.09-2.46a7.509 7.509 0 0 0-4.54 1.5 8.366 8.366 0 0 0-3 4.067 28.965 28.965 0 0 0-.69 7.792v11.687a6.069 6.069 0 0 1-1.33 4.272 4.384 4.384 0 0 1-3.38 1.4 4.216 4.216 0 0 1-3.31-1.469 6.129 6.129 0 0 1-1.3-4.2v-26.963a5.826 5.826 0 0 1 1.16-3.964 3.986 3.986 0 0 1 3.18-1.333 4.307 4.307 0 0 1 2.22.581 4.067 4.067 0 0 1 1.57 1.743 6 6 0 0 1 .61 2.836zm43.06.137v26.963a6.014 6.014 0 0 1-1.33 4.238 4.406 4.406 0 0 1-3.38 1.435 4.249 4.249 0 0 1-3.34-1.469 6.225 6.225 0 0 1-1.27-4.2V346.8a6.01 6.01 0 0 1 1.27-4.17 4.342 4.342 0 0 1 3.34-1.4 4.459 4.459 0 0 1 3.38 1.4 5.418 5.418 0 0 1 1.33 3.893zm43.95 1.538v27.1a28.427 28.427 0 0 1-.99 8 12.764 12.764 0 0 1-3.17 5.536 13.324 13.324 0 0 1-5.74 3.246 30.86 30.86 0 0 1-8.78 1.06 25.252 25.252 0 0 1-8.6-1.367 14.612 14.612 0 0 1-5.84-3.486 6.287 6.287 0 0 1-2.05-4.374 3.692 3.692 0 0 1 1.16-2.8 4.02 4.02 0 0 1 2.8-1.06 4.6 4.6 0 0 1 3.59 1.811q.75.923 1.53 1.846a9.052 9.052 0 0 0 1.78 1.606 6.705 6.705 0 0 0 2.36.991 12.943 12.943 0 0 0 3.14.342 12.418 12.418 0 0 0 5.6-1.025 5.587 5.587 0 0 0 2.8-2.8 11.024 11.024 0 0 0 .95-3.9c.1-1.367.16-3.576.21-6.63a15.223 15.223 0 0 1-4.99 4.58 13.422 13.422 0 0 1-6.69 1.572 14.249 14.249 0 0 1-8.2-2.392 15.4 15.4 0 0 1-5.36-6.7 24.718 24.718 0 0 1-1.87-9.945 23.972 23.972 0 0 1 1.12-7.587 16.233 16.233 0 0 1 3.28-5.707 13.79 13.79 0 0 1 4.88-3.486 15.182 15.182 0 0 1 6.08-1.195 14.509 14.509 0 0 1 6.87 1.537 16.534 16.534 0 0 1 5.39 4.75v-1.264a5.424 5.424 0 0 1 1.2-3.759 3.925 3.925 0 0 1 3.07-1.333c1.8 0 2.99.592 3.59 1.777a11.481 11.481 0 0 1 .88 5.056zm-27.01 11.824q0 5.673 2.46 8.578a8.069 8.069 0 0 0 6.42 2.9 8.329 8.329 0 0 0 4.37-1.231 9.2 9.2 0 0 0 3.38-3.759 13.2 13.2 0 0 0 1.3-6.117q0-5.708-2.53-8.885a7.963 7.963 0 0 0-6.59-3.178 7.814 7.814 0 0 0-6.42 3.041q-2.385 3.047-2.39 8.651zm45.56-26.86v13.84a20.022 20.022 0 0 1 3.45-3.247 12.327 12.327 0 0 1 3.75-1.777 15.311 15.311 0 0 1 4.41-.615 12.788 12.788 0 0 1 6.28 1.5 11.6 11.6 0 0 1 5.67 8.133 28.971 28.971 0 0 1 .34 4.75v17.873a6.1 6.1 0 0 1-1.3 4.238 4.276 4.276 0 0 1-3.38 1.435q-4.605 0-4.61-5.673v-15.75a14.326 14.326 0 0 0-1.33-6.869q-1.335-2.425-5.05-2.426a7.589 7.589 0 0 0-4.51 1.435 8.466 8.466 0 0 0-2.97 3.862 24.87 24.87 0 0 0-.75 7.415v12.337a6.282 6.282 0 0 1-1.27 4.238 4.3 4.3 0 0 1-3.45 1.435q-4.605 0-4.61-5.673v-40.461a6.383 6.383 0 0 1 1.2-4.238 4.817 4.817 0 0 1 6.86 0 6.2 6.2 0 0 1 1.27 4.238zm33.6 9.021h1.02v-5.6c0-1.5.04-2.677.11-3.52a5.48 5.48 0 0 1 .68-2.222 4.065 4.065 0 0 1 1.57-1.537 4.366 4.366 0 0 1 2.29-.616 4.618 4.618 0 0 1 3.21 1.333 3.849 3.849 0 0 1 1.19 2.187 17.582 17.582 0 0 1 .28 3.623v6.356h3.41a4.276 4.276 0 0 1 3.01.957 3.045 3.045 0 0 1 1.06 2.392 2.687 2.687 0 0 1-1.51 2.632 9.514 9.514 0 0 1-4.23.752h-1.74v17.155a32.452 32.452 0 0 0 .13 3.383 3.745 3.745 0 0 0 .82 1.914 2.924 2.924 0 0 0 2.19.718 12.242 12.242 0 0 0 2.22-.274 10.865 10.865 0 0 1 2.18-.307 2.724 2.724 0 0 1 2.02.922 2.975 2.975 0 0 1 .92 2.222 3.745 3.745 0 0 1-2.46 3.451 16.585 16.585 0 0 1-7.07 1.2q-4.365 0-6.62-1.469a6.909 6.909 0 0 1-2.97-4.067 27.99 27.99 0 0 1-.69-6.937v-17.915h-1.22a4.45 4.45 0 0 1-3.08-.957 3.149 3.149 0 0 1-1.06-2.427 2.987 2.987 0 0 1 1.1-2.392 4.867 4.867 0 0 1 3.24-.957zm24.21 31.44v-40.461a6.356 6.356 0 0 1 1.23-4.238 4.276 4.276 0 0 1 3.38-1.435 4.4 4.4 0 0 1 3.42 1.435 6.074 6.074 0 0 1 1.29 4.238v40.461a6.069 6.069 0 0 1-1.33 4.272 4.384 4.384 0 0 1-3.38 1.4 4.249 4.249 0 0 1-3.34-1.469 6.225 6.225 0 0 1-1.27-4.203zm28.31-26.963v26.963a6.014 6.014 0 0 1-1.33 4.238 4.406 4.406 0 0 1-3.38 1.435 4.269 4.269 0 0 1-3.35-1.469 6.277 6.277 0 0 1-1.26-4.2V346.8a6.059 6.059 0 0 1 1.26-4.17 4.364 4.364 0 0 1 3.35-1.4 4.459 4.459 0 0 1 3.38 1.4 5.418 5.418 0 0 1 1.33 3.893zm-4.16-8.14a5 5 0 0 1-3.35-1.2 4.259 4.259 0 0 1-1.36-3.384 4.155 4.155 0 0 1 1.4-3.246 4.774 4.774 0 0 1 3.31-1.3 4.874 4.874 0 0 1 3.21 1.162 4.157 4.157 0 0 1 1.4 3.383 4.329 4.329 0 0 1-1.37 3.384 4.756 4.756 0 0 1-3.24 1.201zm22.29 8v1.128a16.175 16.175 0 0 1 5.37-4.75 14.258 14.258 0 0 1 6.72-1.538 13.36 13.36 0 0 1 6.59 1.606 10.152 10.152 0 0 1 4.34 4.545 10.887 10.887 0 0 1 1.2 3.691 38.731 38.731 0 0 1 .27 5.058v17.36a6.1 6.1 0 0 1-1.3 4.238 4.187 4.187 0 0 1-3.31 1.435 4.289 4.289 0 0 1-3.38-1.469 6.129 6.129 0 0 1-1.3-4.2v-15.55a15.2 15.2 0 0 0-1.3-7.04q-1.26-2.46-5.08-2.46a7.516 7.516 0 0 0-4.55 1.5 8.491 8.491 0 0 0-3 4.067c-.46 1.39-.68 3.987-.68 7.792v11.687a6.071 6.071 0 0 1-1.34 4.272 4.384 4.384 0 0 1-3.38 1.4 4.23 4.23 0 0 1-3.31-1.469 6.18 6.18 0 0 1-1.3-4.2v-26.963a5.826 5.826 0 0 1 1.16-3.964 4.013 4.013 0 0 1 3.18-1.333 4.307 4.307 0 0 1 2.22.581 4.067 4.067 0 0 1 1.57 1.743 6 6 0 0 1 .61 2.836zm59.77 16.1h-18.24a12.5 12.5 0 0 0 1.26 5.6 9 9 0 0 0 3.32 3.657 8.822 8.822 0 0 0 4.57 1.23 11.449 11.449 0 0 0 3.04-.376 10.661 10.661 0 0 0 2.7-1.23 22.611 22.611 0 0 0 2.39-1.812c.73-.638 1.67-1.5 2.83-2.6a3.079 3.079 0 0 1 2.05-.615 3.4 3.4 0 0 1 2.33.786 2.813 2.813 0 0 1 .88 2.221 6.163 6.163 0 0 1-.99 2.973 11.97 11.97 0 0 1-3 3.247 17.053 17.053 0 0 1-5.02 2.563 21.511 21.511 0 0 1-6.93 1.025q-8.985 0-13.97-5.126t-4.99-13.909a23.061 23.061 0 0 1 1.23-7.655 16.925 16.925 0 0 1 3.59-6.083 15.348 15.348 0 0 1 5.8-3.861 20.586 20.586 0 0 1 7.65-1.367 17.929 17.929 0 0 1 9.36 2.324 14.95 14.95 0 0 1 5.87 5.946 15.668 15.668 0 0 1 1.95 7.45q0 3.519-2.02 4.579a12.689 12.689 0 0 1-5.66 1.032zm-18.24-5.3h16.9c-.22-3.189-1.09-5.57-2.59-7.142a7.633 7.633 0 0 0-5.87-2.392 7.48 7.48 0 0 0-5.74 2.426q-2.22 2.395-2.7 7.11zm-210.3-22.5a5.685 5.685 0 0 1-2.09-10.56.4.4 0 0 0-.2-.747 7.686 7.686 0 1 0 7.62 10.183.4.4 0 0 0-.66-.411 5.664 5.664 0 0 1-4.67 1.535z" transform="translate(-1184 -179)"/></svg>