<svg xmlns="http://www.w3.org/2000/svg" xmlns:xlink="http://www.w3.org/1999/xlink" id="Capa_1" x="0" y="0" version="1.1" viewBox="0 0 439.421 439.421" xml:space="preserve" style="enable-background:new 0 0 439.421 439.421"><g><path d="M296.828,41.114c-0.854-1.029-2.124-1.625-3.462-1.625h-12.599C278.071,17.399,251.727,0,219.711,0 c-32.015,0-58.36,17.399-61.057,39.489h-12.599c-1.338,0-2.607,0.596-3.462,1.625c-0.855,1.029-1.208,2.386-0.961,3.701l5,26.761 c0.398,2.13,2.257,3.674,4.423,3.674h7.128v321.73l-9.748,19.723c-0.025,0.05-0.466,0.736-0.466,1.994v16.224 c0,2.485,2.015,4.5,4.5,4.5h134.483c2.485,0,4.5-2.015,4.5-4.5v-16.224c0-1.216-0.441-1.944-0.466-1.994l-9.747-19.721V75.25h7.127 c2.167,0,4.025-1.544,4.424-3.674l5-26.761C298.035,43.5,297.683,42.144,296.828,41.114z M219.711,9 c26.909,0,49.13,13.369,51.983,30.489h-9.287c-4.612-11.444-19.799-22.085-42.669-22.227 c-22.867-0.183-38.106,10.566-42.733,22.227h-9.278C170.582,22.369,192.802,9,219.711,9z M273.942,402.532l5.766,11.665H159.712 l5.766-11.665H273.942z M156.969,430.421v-7.224h125.483v7.224H156.969z M272.239,393.532H167.183V75.25h7.536v300.771l0,0v0.001 c0,2.485,2.015,4.5,4.5,4.5h80.983c2.485,0,4.5-2.015,4.5-4.5V75.25h7.537V393.532z M187.715,75.25c1.855,0,3.52-1.139,4.193-2.867 c4.359-11.191,15.532-18.711,27.803-18.711c12.269,0,23.442,7.519,27.803,18.712c0.674,1.729,2.339,2.866,4.193,2.866h3.995v9.306 h-17.076c-3.66-7.985-10.938-13.169-18.915-13.169c-7.978,0-15.256,5.184-18.915,13.169h-17.078V75.25H187.715z M183.719,371.522 V249.839h9.819c2.485,0,4.5-2.015,4.5-4.5V199.64c0-2.485-2.015-4.5-4.5-4.5h-2.659v-20.602h24.332v7.596h-2.66 c-2.485,0-4.5,2.015-4.5,4.5v45.699c0,2.485,2.015,4.5,4.5,4.5h2.66v59.596c-8.76,2.046-15.312,9.902-15.312,19.277 c0,10.924,8.888,19.812,19.813,19.812c10.924,0,19.81-8.888,19.81-19.812c0-9.375-6.552-17.232-15.311-19.277v-59.596h2.658 c2.485,0,4.5-2.015,4.5-4.5v-45.699c0-2.485-2.015-4.5-4.5-4.5h-2.658v-7.596h24.332v20.602h-2.66c-2.485,0-4.5,2.015-4.5,4.5 v45.699c0,2.485,2.015,4.5,4.5,4.5h9.819v121.683H183.719z M183.72,165.538V93.556h71.982v71.982H183.72z M219.711,80.387 c3.129,0,6.11,1.556,8.365,4.169h-16.73C213.601,81.942,216.582,80.387,219.711,80.387z M250.383,204.14h5.319v36.699h-5.319 V204.14z M189.038,204.14v36.699h-5.319V204.14H189.038z M219.712,304.894c5.961,0,10.81,4.851,10.81,10.813 c0,5.962-4.85,10.812-10.81,10.812c-5.962,0-10.813-4.85-10.813-10.812C208.899,309.744,213.75,304.894,219.712,304.894z M222.369,191.134v36.699h-5.318v-36.699H222.369z M284.629,66.25h-29.987c-6.389-13.024-20.047-21.578-34.931-21.578 c-14.885,0-28.544,8.554-34.931,21.578h-29.988l-3.319-17.761h28.861c2.191,0,4.012-1.567,4.413-3.641 c1.533-7.231,12.238-18.588,34.525-18.588c0.135,0,0.274,0,0.411,0.001c22.664,0.142,33.48,11.461,34.992,18.587 c0.102,0.526,0.305,1.012,0.572,1.455c0.008,0.013,0.014,0.026,0.021,0.039c0.127,0.207,0.273,0.397,0.432,0.58 c0.011,0.011,0.02,0.023,0.029,0.034c0.824,0.933,2.016,1.532,3.358,1.532h28.859L284.629,66.25z"/><path d="M251.691,130.103c0.305-17.633-13.793-32.229-31.425-32.535l-0.565-0.005c-17.327,0-31.668,14.099-31.971,31.429 c-0.306,17.633,13.79,32.229,31.424,32.536l0.565,0.005C237.049,161.532,251.391,147.434,251.691,130.103z M196.73,129.148 c0.217-12.453,10.522-22.585,22.972-22.585l0.408,0.003c12.671,0.222,22.801,10.71,22.583,23.382 c-0.217,12.453-10.522,22.585-22.973,22.585l-0.408-0.003C206.64,152.308,196.51,141.819,196.73,129.148z"/><path d="M226.52,142.9c0.957,0,1.922-0.304,2.739-0.933c1.971-1.515,2.34-4.34,0.825-6.31l-5.873-7.641v-8.381 c0-2.485-2.015-4.5-4.5-4.5c-2.485,0-4.5,2.015-4.5,4.5v9.91c0,0.992,0.328,1.956,0.932,2.742l6.806,8.854 C223.835,142.296,225.17,142.9,226.52,142.9z"/></g></svg>